<?xml version="1.0" encoding="UTF-8"?>
<svg id="Capa_1" xmlns="http://www.w3.org/2000/svg" version="1.1" viewBox="0 0 973.79 426.37">
  <!-- Generator: Adobe Illustrator 30.3.0, SVG Export Plug-In . SVG Version: 2.1.3 Build 182)  -->
  <defs>
    <style>
      .st0 {
        fill: #4b77bb;
      }

      .st1 {
        font-family: DMSans-Regular, 'DM Sans';
        font-size: 228.4px;
      }
    </style>
  </defs>
  <text class="st1" transform="translate(291.39 279.76)"><tspan x="0" y="0">aelium</tspan></text>
  <g>
    <path class="st0" d="M157.64,132.66l84.06,84.06,28.76-28.76c7.02-7.02,7.02-18.41,0-25.43l-117.53-117.53c-7.02-7.02-18.41-7.02-25.43,0L9.96,162.52c-7.02,7.02-7.02,18.41,0,25.43l28.76,28.76,84.06-84.06c9.63-9.63,25.23-9.63,34.86,0Z"/>
    <path class="st0" d="M241.7,225.18l-88.77-88.77c-7.02-7.02-18.41-7.02-25.43,0l-88.77,88.77-28.76,28.76c-7.02,7.02-7.02,18.41,0,25.43l117.53,117.53c7.02,7.02,18.41,7.02,25.43,0l117.53-117.53c7.02-7.02,7.02-18.41,0-25.43l-28.76-28.76Z"/>
  </g>
</svg>