<?xml version="1.0" encoding="UTF-8"?>
<svg id="Capa_1" data-name="Capa 1" xmlns="http://www.w3.org/2000/svg" viewBox="0 0 980.79 362.45">
  <defs>
    <style>
      .cls-1 {
        font-family: DMSans-Regular, 'DM Sans';
        font-size: 228.4px;
      }
    </style>
  </defs>
  <text class="cls-1" transform="translate(286.69 240.03)"><tspan x="0" y="0">aelium</tspan></text>
  <g>
    <path d="M152.95,92.94l84.06,84.06,28.76-28.76c7.02-7.02,7.02-18.41,0-25.43L148.23,5.27c-7.02-7.02-18.41-7.02-25.43,0L5.27,122.8c-7.02,7.02-7.02,18.41,0,25.43l28.76,28.76,84.06-84.06c9.63-9.63,25.23-9.63,34.86,0Z"/>
    <path d="M237,185.46l-88.77-88.77c-7.02-7.02-18.41-7.02-25.43,0l-88.77,88.77-28.76,28.76c-7.02,7.02-7.02,18.41,0,25.43l117.53,117.53c7.02,7.02,18.41,7.02,25.43,0l117.53-117.53c7.02-7.02,7.02-18.41,0-25.43l-28.76-28.76Z"/>
  </g>
</svg>