<?xml version="1.0" encoding="UTF-8"?>
<svg id="Capa_1" xmlns="http://www.w3.org/2000/svg" version="1.1" viewBox="0 0 973.79 426.37">
  <!-- Generator: Adobe Illustrator 30.3.0, SVG Export Plug-In . SVG Version: 2.1.3 Build 182)  -->
  <defs>
    <style>
      .st0 {
        font-family: DMSans-Regular, 'DM Sans';
        font-size: 202.66px;
      }
    </style>
  </defs>
  <text class="st0" transform="translate(300.7 282.71)"><tspan x="0" y="0">aelium</tspan></text>
  <g>
    <path d="M182.03,152.2l74.58,74.58,25.52-25.52c6.23-6.23,6.23-16.34,0-22.57l-104.29-104.29c-6.23-6.23-16.34-6.23-22.57,0l-104.29,104.29c-6.23,6.23-6.23,16.34,0,22.57l25.52,25.52,74.58-74.58c8.54-8.54,22.39-8.54,30.93,0Z"/>
    <path d="M256.62,234.29l-78.76-78.76c-6.23-6.23-16.34-6.23-22.57,0l-78.76,78.76-25.52,25.52c-6.23,6.23-6.23,16.34,0,22.57l104.29,104.29c6.23,6.23,16.34,6.23,22.57,0l104.29-104.29c6.23-6.23,6.23-16.34,0-22.57l-25.52-25.52Z"/>
  </g>
</svg>